<svg xmlns="http://www.w3.org/2000/svg" viewBox="0 0 400 250">
  <defs>
    <linearGradient id="g3" x1="0%" y1="0%" x2="100%" y2="100%">
      <stop offset="0%" stop-color="#f0fdfa" />
      <stop offset="100%" stop-color="#ccfbf1" />
    </linearGradient>
  </defs>
  <rect width="400" height="250" fill="url(#g3)" />
  
  <!-- DNA / AI Brain motif -->
  <g transform="translate(200, 100)">
    <!-- DNA double helix stylized -->
    <path d="M-60,-40 Q-40,0 -60,40 M-40,-40 Q-60,0 -40,40" stroke="#0d9488" stroke-width="4" fill="none" opacity="0.3"/>
    <path d="M60,-40 Q40,0 60,40 M40,-40 Q60,0 40,40" stroke="#0d9488" stroke-width="4" fill="none" opacity="0.3"/>
    
    <!-- AI nodes -->
    <rect x="-30" y="-30" width="60" height="60" rx="10" fill="#ffffff" stroke="#0d9488" stroke-width="2" />
    <circle cx="-15" cy="-15" r="4" fill="#0d9488" />
    <circle cx="15" cy="-15" r="4" fill="#0d9488" />
    <circle cx="-15" cy="15" r="4" fill="#0d9488" />
    <circle cx="15" cy="15" r="4" fill="#0d9488" />
    <line x1="-15" y1="-15" x2="15" y2="15" stroke="#0d9488" stroke-width="1" />
    <line x1="15" y1="-15" x2="-15" y2="15" stroke="#0d9488" stroke-width="1" />
  </g>
  
  <text x="200" y="220" text-anchor="middle" font-family="sans-serif" font-size="16" font-weight="bold" fill="#134e4a">DeepAMR</text>
  <text x="200" y="238" text-anchor="middle" font-family="sans-serif" font-size="11" fill="#64748b">AI-Powered AMR Prediction</text>
</svg>