<svg xmlns="http://www.w3.org/2000/svg" viewBox="0 0 400 250">
  <defs>
    <linearGradient id="g1" x1="0%" y1="0%" x2="100%" y2="100%">
      <stop offset="0%" stop-color="#eff6ff" />
      <stop offset="100%" stop-color="#dbeafe" />
    </linearGradient>
  </defs>
  <rect width="400" height="250" fill="url(#g1)" />
  
  <!-- Macrophage / Cell Icon -->
  <g transform="translate(200, 110)">
    <path d="M-40,-30 C-60,-50 -80,0 -60,40 C-40,60 0,70 40,40 C60,20 70,-20 40,-50 C20,-60 -20,-50 -40,-30" fill="#3b82f6" opacity="0.2" stroke="#2563eb" stroke-width="2"/>
    <circle cx="0" cy="0" r="15" fill="#2563eb" opacity="0.4" />
    <!-- Radar / Network lines -->
    <line x1="0" y1="0" x2="80" y2="-40" stroke="#2563eb" stroke-width="1.5" stroke-dasharray="4,2"/>
    <line x1="0" y1="0" x2="-70" y2="30" stroke="#2563eb" stroke-width="1.5" stroke-dasharray="4,2"/>
    <line x1="0" y1="0" x2="50" y2="60" stroke="#2563eb" stroke-width="1.5" stroke-dasharray="4,2"/>
    
    <circle cx="80" cy="-40" r="8" fill="#ef4444" />
    <circle cx="-70" cy="30" r="8" fill="#10b981" />
    <circle cx="50" cy="60" r="8" fill="#f59e0b" />
  </g>
  
  <text x="200" y="220" text-anchor="middle" font-family="sans-serif" font-size="16" font-weight="bold" fill="#1e40af">TAM-Atlas</text>
  <text x="200" y="238" text-anchor="middle" font-family="sans-serif" font-size="11" fill="#64748b">Macrophage Heterogeneity</text>
</svg>