<svg xmlns="http://www.w3.org/2000/svg" viewBox="0 0 220 110" width="220" height="110" role="img" aria-label="Single cells encapsulated in droplets resolving into UMAP clusters">
  <circle cx="34" cy="34" r="15" fill="none" stroke="#ffffff" stroke-width="2" opacity=".7"/>
  <circle cx="34" cy="34" r="5" fill="#ffffff" opacity=".95"/>
  <circle cx="30" cy="72" r="15" fill="none" stroke="#ffffff" stroke-width="2" opacity=".5"/>
  <circle cx="30" cy="72" r="5" fill="#ffffff" opacity=".75"/>
  <circle cx="66" cy="54" r="13" fill="none" stroke="#ffffff" stroke-width="2" opacity=".6"/>
  <circle cx="66" cy="54" r="4.5" fill="#ffffff" opacity=".85"/>
  <path d="M92 55 L112 55 M105 48 L112 55 L105 62" stroke="#ffffff" stroke-width="3" fill="none" stroke-linecap="round" stroke-linejoin="round" opacity=".85"/>
  <ellipse cx="152" cy="36" rx="26" ry="17" fill="#ffffff" opacity=".14"/>
  <ellipse cx="184" cy="72" rx="22" ry="15" fill="#ffffff" opacity=".14"/>
  <ellipse cx="140" cy="76" rx="22" ry="14" fill="#ffffff" opacity=".14"/>
  <g fill="#ffffff">
    <circle cx="143" cy="30" r="3.2"/>
    <circle cx="155" cy="27" r="3.2"/>
    <circle cx="163" cy="37" r="3.2"/>
    <circle cx="147" cy="41" r="3.2"/>
    <circle cx="158" cy="44" r="3.2"/>
    <circle cx="178" cy="66" r="3.2" opacity=".8"/>
    <circle cx="189" cy="70" r="3.2" opacity=".8"/>
    <circle cx="182" cy="78" r="3.2" opacity=".8"/>
    <circle cx="194" cy="79" r="3.2" opacity=".8"/>
    <circle cx="132" cy="72" r="3.2" opacity=".65"/>
    <circle cx="144" cy="70" r="3.2" opacity=".65"/>
    <circle cx="138" cy="81" r="3.2" opacity=".65"/>
    <circle cx="150" cy="80" r="3.2" opacity=".65"/>
  </g>
</svg>
